<mxfile host="app.diagrams.net" agent="Mozilla/5.0 (Windows NT 10.0; Win64; x64) AppleWebKit/537.36 (KHTML, like Gecko) Chrome/138.0.0.0 Safari/537.36 Edg/138.0.0.0" version="28.0.1">
  <diagram name="第 1 页" id="zPSorv1yJ6LFq10Xwx7Y">
    <mxGraphModel dx="446" dy="604" grid="1" gridSize="10" guides="1" tooltips="1" connect="1" arrows="1" fold="1" page="1" pageScale="1" pageWidth="827" pageHeight="1169" math="0" shadow="0">
      <root>
        <mxCell id="0" />
        <mxCell id="1" parent="0" />
        <mxCell id="4CgHHLtxshhPGdtNZWGW-10" style="edgeStyle=orthogonalEdgeStyle;rounded=0;orthogonalLoop=1;jettySize=auto;html=1;entryX=0.5;entryY=0;entryDx=0;entryDy=0;exitX=0;exitY=0.5;exitDx=0;exitDy=0;exitPerimeter=0;entryPerimeter=0;" parent="1" source="4CgHHLtxshhPGdtNZWGW-113" target="n2EQK90ootmfX-V5ilXE-3" edge="1">
          <mxGeometry relative="1" as="geometry">
            <Array as="points">
              <mxPoint x="1044" y="669" />
              <mxPoint x="1044" y="720" />
              <mxPoint x="1208" y="720" />
              <mxPoint x="1208" y="757" />
            </Array>
            <mxPoint x="1207.63" y="746.5" as="targetPoint" />
          </mxGeometry>
        </mxCell>
        <mxCell id="4CgHHLtxshhPGdtNZWGW-11" value="&lt;b&gt;隔离调度&lt;/b&gt;" style="text;html=1;align=center;verticalAlign=middle;whiteSpace=wrap;rounded=0;fontSize=15;" parent="1" vertex="1">
          <mxGeometry x="1052.63" y="694" width="65" height="25" as="geometry" />
        </mxCell>
        <mxCell id="4CgHHLtxshhPGdtNZWGW-12" value="&lt;b&gt;攻击感知&lt;/b&gt;" style="text;html=1;align=center;verticalAlign=middle;whiteSpace=wrap;rounded=0;fontSize=15;" parent="1" vertex="1">
          <mxGeometry x="1211.13" y="694" width="65" height="25" as="geometry" />
        </mxCell>
        <mxCell id="4CgHHLtxshhPGdtNZWGW-14" value="" style="sketch=0;points=[[0.015,0.015,0],[0.985,0.015,0],[0.985,0.985,0],[0.015,0.985,0],[0.25,0,0],[0.5,0,0],[0.75,0,0],[1,0.25,0],[1,0.5,0],[1,0.75,0],[0.75,1,0],[0.5,1,0],[0.25,1,0],[0,0.75,0],[0,0.5,0],[0,0.25,0]];verticalLabelPosition=bottom;html=1;verticalAlign=top;align=center;pointerEvents=1;shape=mxgraph.cisco19.rect;prIcon=nac_appliance;fillColor=none;strokeColor=#005073;fontSize=15;" parent="1" vertex="1">
          <mxGeometry x="973.63" y="543.61" width="64" height="50" as="geometry" />
        </mxCell>
        <mxCell id="4CgHHLtxshhPGdtNZWGW-15" value="&lt;b&gt;用户评估&lt;/b&gt;" style="text;html=1;align=center;verticalAlign=middle;whiteSpace=wrap;rounded=0;fontSize=15;" parent="1" vertex="1">
          <mxGeometry x="973.63" y="593.61" width="65" height="25" as="geometry" />
        </mxCell>
        <mxCell id="4CgHHLtxshhPGdtNZWGW-16" value="威胁&lt;div&gt;评定&lt;/div&gt;" style="text;html=1;align=center;verticalAlign=middle;whiteSpace=wrap;rounded=0;fontSize=15;" parent="1" vertex="1">
          <mxGeometry x="1038.63" y="601.5" width="60" height="30" as="geometry" />
        </mxCell>
        <mxCell id="4CgHHLtxshhPGdtNZWGW-17" value="洗牌信号" style="text;html=1;align=center;verticalAlign=middle;whiteSpace=wrap;rounded=0;fontSize=15;" parent="1" vertex="1">
          <mxGeometry x="984.13" y="652.5000000000001" width="44" height="30" as="geometry" />
        </mxCell>
        <mxCell id="4CgHHLtxshhPGdtNZWGW-18" value="" style="sketch=0;points=[[0.015,0.015,0],[0.985,0.015,0],[0.985,0.985,0],[0.015,0.985,0],[0.25,0,0],[0.5,0,0],[0.75,0,0],[1,0.25,0],[1,0.5,0],[1,0.75,0],[0.75,1,0],[0.5,1,0],[0.25,1,0],[0,0.75,0],[0,0.5,0],[0,0.25,0]];verticalLabelPosition=bottom;html=1;verticalAlign=top;align=center;pointerEvents=1;shape=mxgraph.cisco19.rect;prIcon=database_relational;fillColor=none;strokeColor=#005073;fontSize=15;" parent="1" vertex="1">
          <mxGeometry x="1131.63" y="543.61" width="64" height="50" as="geometry" />
        </mxCell>
        <mxCell id="4CgHHLtxshhPGdtNZWGW-19" value="&lt;b&gt;数据库&lt;/b&gt;" style="text;html=1;align=center;verticalAlign=middle;whiteSpace=wrap;rounded=0;fontSize=15;" parent="1" vertex="1">
          <mxGeometry x="1133.13" y="594.28" width="65" height="25" as="geometry" />
        </mxCell>
        <mxCell id="4CgHHLtxshhPGdtNZWGW-20" value="攻击&lt;div&gt;信号&lt;/div&gt;" style="text;html=1;align=center;verticalAlign=middle;whiteSpace=wrap;rounded=0;fontSize=15;" parent="1" vertex="1">
          <mxGeometry x="1133.6299999999999" y="654" width="60" height="30" as="geometry" />
        </mxCell>
        <mxCell id="4CgHHLtxshhPGdtNZWGW-21" value="" style="points=[[0.03,0.03,0],[0.5,0,0],[0.97,0.03,0],[1,0.4,0],[0.97,0.745,0],[0.5,1,0],[0.03,0.745,0],[0,0.4,0]];verticalLabelPosition=bottom;sketch=0;html=1;verticalAlign=top;align=center;pointerEvents=1;shape=mxgraph.cisco19.stealthwatch_management_console_smc;fillColor=#005073;strokeColor=none;fontSize=15;" parent="1" vertex="1">
          <mxGeometry x="1290.4299999999998" y="543.61" width="64" height="50" as="geometry" />
        </mxCell>
        <mxCell id="4CgHHLtxshhPGdtNZWGW-22" value="&lt;b&gt;可视管理&lt;/b&gt;" style="text;html=1;align=center;verticalAlign=middle;whiteSpace=wrap;rounded=0;fontSize=15;" parent="1" vertex="1">
          <mxGeometry x="1290.4299999999998" y="594.28" width="65" height="25" as="geometry" />
        </mxCell>
        <mxCell id="4CgHHLtxshhPGdtNZWGW-23" value="系统&lt;div&gt;信息&lt;br&gt;&lt;/div&gt;" style="text;html=1;align=center;verticalAlign=middle;whiteSpace=wrap;rounded=0;fontSize=15;" parent="1" vertex="1">
          <mxGeometry x="1214.63" y="541" width="60" height="30" as="geometry" />
        </mxCell>
        <mxCell id="4CgHHLtxshhPGdtNZWGW-28" value="" style="endArrow=classic;startArrow=none;html=1;rounded=0;entryX=0;entryY=0.25;entryDx=0;entryDy=0;entryPerimeter=0;fontSize=15;exitX=1;exitY=0.25;exitDx=0;exitDy=0;exitPerimeter=0;startFill=0;dashed=1;" parent="1" source="4CgHHLtxshhPGdtNZWGW-14" target="4CgHHLtxshhPGdtNZWGW-18" edge="1">
          <mxGeometry width="50" height="50" relative="1" as="geometry">
            <mxPoint x="1043.63" y="454" as="sourcePoint" />
            <mxPoint x="1093.63" y="404" as="targetPoint" />
          </mxGeometry>
        </mxCell>
        <mxCell id="4CgHHLtxshhPGdtNZWGW-29" value="" style="endArrow=classic;startArrow=classic;html=1;rounded=0;exitX=1;exitY=0.25;exitDx=0;exitDy=0;exitPerimeter=0;fontSize=15;entryX=0.002;entryY=0.252;entryDx=0;entryDy=0;entryPerimeter=0;" parent="1" source="4CgHHLtxshhPGdtNZWGW-18" target="4CgHHLtxshhPGdtNZWGW-21" edge="1">
          <mxGeometry width="50" height="50" relative="1" as="geometry">
            <mxPoint x="1273.63" y="544" as="sourcePoint" />
            <mxPoint x="1343.63" y="564" as="targetPoint" />
          </mxGeometry>
        </mxCell>
        <mxCell id="4CgHHLtxshhPGdtNZWGW-30" style="edgeStyle=orthogonalEdgeStyle;rounded=0;orthogonalLoop=1;jettySize=auto;html=1;entryX=1;entryY=0.5;entryDx=0;entryDy=0;entryPerimeter=0;" parent="1" source="4CgHHLtxshhPGdtNZWGW-31" target="4CgHHLtxshhPGdtNZWGW-113" edge="1">
          <mxGeometry relative="1" as="geometry">
            <mxPoint x="1110.63" y="668.9949999999999" as="targetPoint" />
            <Array as="points">
              <mxPoint x="1163.63" y="669" />
              <mxPoint x="1163.63" y="669" />
            </Array>
          </mxGeometry>
        </mxCell>
        <mxCell id="4CgHHLtxshhPGdtNZWGW-31" value="" style="sketch=0;points=[[0.015,0.015,0],[0.985,0.015,0],[0.985,0.985,0],[0.015,0.985,0],[0.25,0,0],[0.5,0,0],[0.75,0,0],[1,0.25,0],[1,0.5,0],[1,0.75,0],[0.75,1,0],[0.5,1,0],[0.25,1,0],[0,0.75,0],[0,0.5,0],[0,0.25,0]];verticalLabelPosition=bottom;html=1;verticalAlign=top;align=center;pointerEvents=1;shape=mxgraph.cisco19.rect;prIcon=anomaly_detection;fillColor=none;strokeColor=#005073;fontSize=15;" parent="1" vertex="1">
          <mxGeometry x="1211.63" y="644" width="64" height="50" as="geometry" />
        </mxCell>
        <mxCell id="4CgHHLtxshhPGdtNZWGW-69" style="edgeStyle=orthogonalEdgeStyle;rounded=0;orthogonalLoop=1;jettySize=auto;html=1;entryX=0.5;entryY=1;entryDx=0;entryDy=0;exitX=0;exitY=0.5;exitDx=0;exitDy=0;exitPerimeter=0;" parent="1" source="4CgHHLtxshhPGdtNZWGW-113" target="4CgHHLtxshhPGdtNZWGW-15" edge="1">
          <mxGeometry relative="1" as="geometry">
            <mxPoint x="1043.63" y="670" as="sourcePoint" />
          </mxGeometry>
        </mxCell>
        <mxCell id="4CgHHLtxshhPGdtNZWGW-70" style="edgeStyle=orthogonalEdgeStyle;rounded=0;orthogonalLoop=1;jettySize=auto;html=1;entryX=0.25;entryY=0;entryDx=0;entryDy=0;entryPerimeter=0;exitX=1;exitY=0.75;exitDx=0;exitDy=0;exitPerimeter=0;" parent="1" source="4CgHHLtxshhPGdtNZWGW-14" target="4CgHHLtxshhPGdtNZWGW-113" edge="1">
          <mxGeometry relative="1" as="geometry">
            <mxPoint x="1062.63" y="643.9949999999999" as="targetPoint" />
          </mxGeometry>
        </mxCell>
        <mxCell id="4CgHHLtxshhPGdtNZWGW-72" style="edgeStyle=orthogonalEdgeStyle;rounded=0;orthogonalLoop=1;jettySize=auto;html=1;entryX=1;entryY=0.75;entryDx=0;entryDy=0;entryPerimeter=0;exitX=0.25;exitY=0;exitDx=0;exitDy=0;exitPerimeter=0;dashed=1;" parent="1" source="4CgHHLtxshhPGdtNZWGW-31" target="4CgHHLtxshhPGdtNZWGW-18" edge="1">
          <mxGeometry relative="1" as="geometry" />
        </mxCell>
        <mxCell id="4CgHHLtxshhPGdtNZWGW-73" style="edgeStyle=orthogonalEdgeStyle;rounded=0;orthogonalLoop=1;jettySize=auto;html=1;entryX=0;entryY=0.75;entryDx=0;entryDy=0;entryPerimeter=0;exitX=0.75;exitY=0;exitDx=0;exitDy=0;exitPerimeter=0;dashed=1;" parent="1" source="4CgHHLtxshhPGdtNZWGW-113" target="4CgHHLtxshhPGdtNZWGW-18" edge="1">
          <mxGeometry relative="1" as="geometry">
            <mxPoint x="1094.63" y="643.9949999999999" as="sourcePoint" />
          </mxGeometry>
        </mxCell>
        <mxCell id="4CgHHLtxshhPGdtNZWGW-113" value="" style="sketch=0;points=[[0.015,0.015,0],[0.985,0.015,0],[0.985,0.985,0],[0.015,0.985,0],[0.25,0,0],[0.5,0,0],[0.75,0,0],[1,0.25,0],[1,0.5,0],[1,0.75,0],[0.75,1,0],[0.5,1,0],[0.25,1,0],[0,0.75,0],[0,0.5,0],[0,0.25,0]];verticalLabelPosition=bottom;html=1;verticalAlign=top;aspect=fixed;align=center;pointerEvents=1;shape=mxgraph.cisco19.rect;prIcon=video_gateway;fillColor=none;strokeColor=#005073;" parent="1" vertex="1">
          <mxGeometry x="1052.63" y="644" width="64" height="50" as="geometry" />
        </mxCell>
        <mxCell id="4CgHHLtxshhPGdtNZWGW-143" value="调节" style="text;html=1;align=center;verticalAlign=middle;whiteSpace=wrap;rounded=0;fontSize=15;" parent="1" vertex="1">
          <mxGeometry x="1141.63" y="694.0000000000001" width="44" height="30" as="geometry" />
        </mxCell>
        <mxCell id="n2EQK90ootmfX-V5ilXE-1" value="" style="points=[[0.35,0,0],[0.98,0.51,0],[1,0.71,0],[0.67,1,0],[0,0.795,0],[0,0.65,0]];verticalLabelPosition=bottom;sketch=0;html=1;verticalAlign=top;aspect=fixed;align=center;pointerEvents=1;shape=mxgraph.cisco19.user;fillColor=#005073;strokeColor=none;" vertex="1" parent="1">
          <mxGeometry x="1000.13" y="762.01" width="40" height="40" as="geometry" />
        </mxCell>
        <mxCell id="n2EQK90ootmfX-V5ilXE-3" value="" style="sketch=0;points=[[0.015,0.015,0],[0.985,0.015,0],[0.985,0.985,0],[0.015,0.985,0],[0.25,0,0],[0.5,0,0],[0.75,0,0],[1,0.25,0],[1,0.5,0],[1,0.75,0],[0.75,1,0],[0.5,1,0],[0.25,1,0],[0,0.75,0],[0,0.5,0],[0,0.25,0]];verticalLabelPosition=bottom;html=1;verticalAlign=top;aspect=fixed;align=center;pointerEvents=1;shape=mxgraph.cisco19.rect;prIcon=load_balancer;fillColor=#FAFAFA;strokeColor=#005073;" vertex="1" parent="1">
          <mxGeometry x="1177" y="757.01" width="64" height="50" as="geometry" />
        </mxCell>
        <mxCell id="n2EQK90ootmfX-V5ilXE-4" value="&lt;b&gt;代理模块&lt;/b&gt;" style="text;html=1;align=center;verticalAlign=middle;whiteSpace=wrap;rounded=0;fontSize=15;" vertex="1" parent="1">
          <mxGeometry x="1177" y="807.01" width="65" height="25" as="geometry" />
        </mxCell>
        <mxCell id="n2EQK90ootmfX-V5ilXE-5" value="&lt;b&gt;客户端&lt;/b&gt;" style="text;html=1;align=center;verticalAlign=middle;whiteSpace=wrap;rounded=0;fontSize=15;" vertex="1" parent="1">
          <mxGeometry x="987.63" y="807.01" width="65" height="25" as="geometry" />
        </mxCell>
        <mxCell id="n2EQK90ootmfX-V5ilXE-6" style="edgeStyle=orthogonalEdgeStyle;rounded=0;orthogonalLoop=1;jettySize=auto;html=1;entryX=0;entryY=0.5;entryDx=0;entryDy=0;entryPerimeter=0;" edge="1" parent="1" source="n2EQK90ootmfX-V5ilXE-1" target="n2EQK90ootmfX-V5ilXE-3">
          <mxGeometry relative="1" as="geometry" />
        </mxCell>
        <mxCell id="n2EQK90ootmfX-V5ilXE-7" style="edgeStyle=orthogonalEdgeStyle;rounded=0;orthogonalLoop=1;jettySize=auto;html=1;entryX=1;entryY=0.5;entryDx=0;entryDy=0;entryPerimeter=0;" edge="1" parent="1" source="n2EQK90ootmfX-V5ilXE-3" target="4CgHHLtxshhPGdtNZWGW-31">
          <mxGeometry relative="1" as="geometry">
            <Array as="points">
              <mxPoint x="1320" y="782" />
              <mxPoint x="1320" y="669" />
            </Array>
          </mxGeometry>
        </mxCell>
      </root>
    </mxGraphModel>
  </diagram>
</mxfile>
